<mxfile host="Electron" agent="Mozilla/5.0 (Windows NT 10.0; Win64; x64) AppleWebKit/537.36 (KHTML, like Gecko) draw.io/24.7.17 Chrome/128.0.6613.36 Electron/32.0.1 Safari/537.36" version="24.7.17">
  <diagram name="Page-1" id="Hp-aOLDHH86cVfx47qaG">
    <mxGraphModel dx="1114" dy="656" grid="1" gridSize="10" guides="1" tooltips="1" connect="1" arrows="1" fold="1" page="1" pageScale="1" pageWidth="850" pageHeight="1100" background="#ffffff" math="0" shadow="0">
      <root>
        <mxCell id="0" />
        <mxCell id="1" parent="0" />
        <mxCell id="j-U4Gg5Q3FjBqcs4gz2q-11" style="edgeStyle=orthogonalEdgeStyle;rounded=0;orthogonalLoop=1;jettySize=auto;html=1;entryX=0.5;entryY=0;entryDx=0;entryDy=0;strokeColor=#000000;" edge="1" parent="1" source="j-U4Gg5Q3FjBqcs4gz2q-1" target="j-U4Gg5Q3FjBqcs4gz2q-2">
          <mxGeometry relative="1" as="geometry" />
        </mxCell>
        <mxCell id="j-U4Gg5Q3FjBqcs4gz2q-1" value="&lt;font color=&quot;#000000&quot;&gt;start&lt;/font&gt;" style="strokeWidth=2;html=1;shape=mxgraph.flowchart.start_1;whiteSpace=wrap;fillColor=#eeeeee;strokeColor=#36393d;" vertex="1" parent="1">
          <mxGeometry x="350" y="30" width="100" height="60" as="geometry" />
        </mxCell>
        <mxCell id="j-U4Gg5Q3FjBqcs4gz2q-12" style="edgeStyle=orthogonalEdgeStyle;rounded=0;orthogonalLoop=1;jettySize=auto;html=1;strokeColor=#000000;" edge="1" parent="1" source="j-U4Gg5Q3FjBqcs4gz2q-2" target="j-U4Gg5Q3FjBqcs4gz2q-3">
          <mxGeometry relative="1" as="geometry" />
        </mxCell>
        <mxCell id="j-U4Gg5Q3FjBqcs4gz2q-2" value="&lt;font&gt;Input&amp;nbsp;&lt;/font&gt;&lt;div&gt;&lt;font&gt;Customer&#39;s&amp;nbsp;&lt;/font&gt;&lt;/div&gt;&lt;div&gt;&lt;font&gt;Last Name&lt;/font&gt;&lt;/div&gt;" style="shape=parallelogram;html=1;strokeWidth=2;perimeter=parallelogramPerimeter;whiteSpace=wrap;rounded=1;arcSize=12;size=0.23;fillColor=#eeeeee;strokeColor=#36393d;fontColor=#000000;" vertex="1" parent="1">
          <mxGeometry x="350" y="120" width="100" height="60" as="geometry" />
        </mxCell>
        <mxCell id="j-U4Gg5Q3FjBqcs4gz2q-13" style="edgeStyle=orthogonalEdgeStyle;rounded=0;orthogonalLoop=1;jettySize=auto;html=1;strokeColor=#000000;" edge="1" parent="1" source="j-U4Gg5Q3FjBqcs4gz2q-3" target="j-U4Gg5Q3FjBqcs4gz2q-6">
          <mxGeometry relative="1" as="geometry" />
        </mxCell>
        <mxCell id="j-U4Gg5Q3FjBqcs4gz2q-3" value="Input&lt;div&gt;Number of&amp;nbsp;&lt;/div&gt;&lt;div&gt;Bathrooms&amp;nbsp;&lt;/div&gt;&lt;div&gt;to be cleaned&lt;/div&gt;" style="shape=parallelogram;html=1;strokeWidth=2;perimeter=parallelogramPerimeter;whiteSpace=wrap;rounded=1;arcSize=12;size=0.23;fillColor=#eeeeee;strokeColor=#36393d;fontColor=#000000;" vertex="1" parent="1">
          <mxGeometry x="350" y="210" width="100" height="50" as="geometry" />
        </mxCell>
        <mxCell id="j-U4Gg5Q3FjBqcs4gz2q-15" value="" style="edgeStyle=orthogonalEdgeStyle;rounded=0;orthogonalLoop=1;jettySize=auto;html=1;" edge="1" parent="1" source="j-U4Gg5Q3FjBqcs4gz2q-4" target="j-U4Gg5Q3FjBqcs4gz2q-5">
          <mxGeometry relative="1" as="geometry" />
        </mxCell>
        <mxCell id="j-U4Gg5Q3FjBqcs4gz2q-16" style="edgeStyle=orthogonalEdgeStyle;rounded=0;orthogonalLoop=1;jettySize=auto;html=1;strokeColor=#000000;" edge="1" parent="1" source="j-U4Gg5Q3FjBqcs4gz2q-4" target="j-U4Gg5Q3FjBqcs4gz2q-5">
          <mxGeometry relative="1" as="geometry" />
        </mxCell>
        <mxCell id="j-U4Gg5Q3FjBqcs4gz2q-4" value="&lt;font style=&quot;font-size: 11px;&quot;&gt;Service Charge = $40 +&amp;nbsp;&lt;/font&gt;&lt;div style=&quot;font-size: 11px;&quot;&gt;&lt;font style=&quot;font-size: 11px;&quot;&gt;$15 for each bathroom +&lt;/font&gt;&lt;/div&gt;&lt;div style=&quot;font-size: 11px;&quot;&gt;&lt;font style=&quot;font-size: 11px;&quot;&gt;$10 for each other room&lt;/font&gt;&lt;/div&gt;" style="shape=parallelogram;html=1;strokeWidth=2;perimeter=parallelogramPerimeter;whiteSpace=wrap;rounded=1;arcSize=12;size=0.23;fillColor=#eeeeee;strokeColor=#36393d;fontColor=#000000;" vertex="1" parent="1">
          <mxGeometry x="310" y="370" width="180" height="60" as="geometry" />
        </mxCell>
        <mxCell id="j-U4Gg5Q3FjBqcs4gz2q-17" style="edgeStyle=orthogonalEdgeStyle;rounded=0;orthogonalLoop=1;jettySize=auto;html=1;strokeColor=#000000;" edge="1" parent="1" source="j-U4Gg5Q3FjBqcs4gz2q-5" target="j-U4Gg5Q3FjBqcs4gz2q-7">
          <mxGeometry relative="1" as="geometry" />
        </mxCell>
        <mxCell id="j-U4Gg5Q3FjBqcs4gz2q-5" value="ba&lt;font color=&quot;#000000&quot;&gt;Bathroom Amount = ($15 * xbathroom) + $40&lt;/font&gt;&lt;div&gt;&lt;font color=&quot;#000000&quot;&gt;&lt;br&gt;&lt;/font&gt;&lt;/div&gt;" style="rounded=1;whiteSpace=wrap;html=1;absoluteArcSize=1;arcSize=14;strokeWidth=2;fillColor=#eeeeee;strokeColor=#36393d;fontColor=default;" vertex="1" parent="1">
          <mxGeometry x="350" y="460" width="100" height="100" as="geometry" />
        </mxCell>
        <mxCell id="j-U4Gg5Q3FjBqcs4gz2q-14" style="edgeStyle=orthogonalEdgeStyle;rounded=0;orthogonalLoop=1;jettySize=auto;html=1;strokeColor=#000000;" edge="1" parent="1" source="j-U4Gg5Q3FjBqcs4gz2q-6" target="j-U4Gg5Q3FjBqcs4gz2q-4">
          <mxGeometry relative="1" as="geometry" />
        </mxCell>
        <mxCell id="j-U4Gg5Q3FjBqcs4gz2q-6" value="Input Number&lt;div&gt;of Other Rooms&lt;/div&gt;&lt;div&gt;to be cleaned&lt;/div&gt;" style="shape=parallelogram;html=1;strokeWidth=2;perimeter=parallelogramPerimeter;whiteSpace=wrap;rounded=1;arcSize=12;size=0.23;fillColor=#eeeeee;strokeColor=#36393d;fontColor=#000000;" vertex="1" parent="1">
          <mxGeometry x="350" y="290" width="100" height="50" as="geometry" />
        </mxCell>
        <mxCell id="j-U4Gg5Q3FjBqcs4gz2q-18" value="" style="edgeStyle=orthogonalEdgeStyle;rounded=0;orthogonalLoop=1;jettySize=auto;html=1;" edge="1" parent="1" source="j-U4Gg5Q3FjBqcs4gz2q-7" target="j-U4Gg5Q3FjBqcs4gz2q-8">
          <mxGeometry relative="1" as="geometry" />
        </mxCell>
        <mxCell id="j-U4Gg5Q3FjBqcs4gz2q-19" style="edgeStyle=orthogonalEdgeStyle;rounded=0;orthogonalLoop=1;jettySize=auto;html=1;strokeColor=#000000;" edge="1" parent="1" source="j-U4Gg5Q3FjBqcs4gz2q-7" target="j-U4Gg5Q3FjBqcs4gz2q-8">
          <mxGeometry relative="1" as="geometry" />
        </mxCell>
        <mxCell id="j-U4Gg5Q3FjBqcs4gz2q-7" value="Other Room Amount = $10 * xother room" style="rounded=1;whiteSpace=wrap;html=1;absoluteArcSize=1;arcSize=14;strokeWidth=2;fillColor=#eeeeee;strokeColor=#36393d;fontColor=#000000;" vertex="1" parent="1">
          <mxGeometry x="350" y="590" width="100" height="100" as="geometry" />
        </mxCell>
        <mxCell id="j-U4Gg5Q3FjBqcs4gz2q-20" style="edgeStyle=orthogonalEdgeStyle;rounded=0;orthogonalLoop=1;jettySize=auto;html=1;strokeColor=#000000;" edge="1" parent="1" source="j-U4Gg5Q3FjBqcs4gz2q-8" target="j-U4Gg5Q3FjBqcs4gz2q-10">
          <mxGeometry relative="1" as="geometry" />
        </mxCell>
        <mxCell id="j-U4Gg5Q3FjBqcs4gz2q-8" value="Total Amount = Bathroom Amount + Other Room Amount" style="rounded=1;whiteSpace=wrap;html=1;absoluteArcSize=1;arcSize=14;strokeWidth=2;fillColor=#eeeeee;strokeColor=#36393d;fontColor=#000000;" vertex="1" parent="1">
          <mxGeometry x="350" y="720" width="100" height="100" as="geometry" />
        </mxCell>
        <mxCell id="j-U4Gg5Q3FjBqcs4gz2q-22" style="edgeStyle=orthogonalEdgeStyle;rounded=0;orthogonalLoop=1;jettySize=auto;html=1;fontColor=#000000;" edge="1" parent="1" source="j-U4Gg5Q3FjBqcs4gz2q-10" target="j-U4Gg5Q3FjBqcs4gz2q-21">
          <mxGeometry relative="1" as="geometry" />
        </mxCell>
        <mxCell id="j-U4Gg5Q3FjBqcs4gz2q-23" value="" style="edgeStyle=orthogonalEdgeStyle;rounded=0;orthogonalLoop=1;jettySize=auto;html=1;" edge="1" parent="1" source="j-U4Gg5Q3FjBqcs4gz2q-10" target="j-U4Gg5Q3FjBqcs4gz2q-21">
          <mxGeometry relative="1" as="geometry" />
        </mxCell>
        <mxCell id="j-U4Gg5Q3FjBqcs4gz2q-24" style="edgeStyle=orthogonalEdgeStyle;rounded=0;orthogonalLoop=1;jettySize=auto;html=1;fontColor=#000000;" edge="1" parent="1" source="j-U4Gg5Q3FjBqcs4gz2q-10" target="j-U4Gg5Q3FjBqcs4gz2q-21">
          <mxGeometry relative="1" as="geometry" />
        </mxCell>
        <mxCell id="j-U4Gg5Q3FjBqcs4gz2q-26" style="edgeStyle=orthogonalEdgeStyle;rounded=0;orthogonalLoop=1;jettySize=auto;html=1;strokeColor=#000000;" edge="1" parent="1" source="j-U4Gg5Q3FjBqcs4gz2q-10" target="j-U4Gg5Q3FjBqcs4gz2q-21">
          <mxGeometry relative="1" as="geometry" />
        </mxCell>
        <mxCell id="j-U4Gg5Q3FjBqcs4gz2q-10" value="Output&amp;nbsp;&lt;div&gt;Customer Last Name, Number of Bathrooms to be cleaned, Number of Other Rooms to be cleaned, Total Amount&lt;/div&gt;&lt;div&gt;&lt;br&gt;&lt;/div&gt;" style="shape=parallelogram;html=1;strokeWidth=2;perimeter=parallelogramPerimeter;whiteSpace=wrap;rounded=1;arcSize=12;size=0.23;fillColor=#eeeeee;strokeColor=#36393d;fontColor=#000000;" vertex="1" parent="1">
          <mxGeometry x="310" y="850" width="180" height="90" as="geometry" />
        </mxCell>
        <mxCell id="j-U4Gg5Q3FjBqcs4gz2q-28" style="edgeStyle=orthogonalEdgeStyle;rounded=0;orthogonalLoop=1;jettySize=auto;html=1;strokeColor=#000000;" edge="1" parent="1" source="j-U4Gg5Q3FjBqcs4gz2q-21" target="j-U4Gg5Q3FjBqcs4gz2q-27">
          <mxGeometry relative="1" as="geometry" />
        </mxCell>
        <mxCell id="j-U4Gg5Q3FjBqcs4gz2q-21" value="Output&amp;nbsp;&lt;div&gt;Program Complete&lt;/div&gt;" style="shape=parallelogram;html=1;strokeWidth=2;perimeter=parallelogramPerimeter;whiteSpace=wrap;rounded=1;arcSize=12;size=0.23;fillColor=#eeeeee;strokeColor=#36393d;fontColor=#000000;" vertex="1" parent="1">
          <mxGeometry x="350" y="970" width="100" height="60" as="geometry" />
        </mxCell>
        <mxCell id="j-U4Gg5Q3FjBqcs4gz2q-25" style="edgeStyle=orthogonalEdgeStyle;rounded=0;orthogonalLoop=1;jettySize=auto;html=1;exitX=0.5;exitY=1;exitDx=0;exitDy=0;entryX=0.556;entryY=0.889;entryDx=0;entryDy=0;entryPerimeter=0;" edge="1" parent="1" source="j-U4Gg5Q3FjBqcs4gz2q-10" target="j-U4Gg5Q3FjBqcs4gz2q-10">
          <mxGeometry relative="1" as="geometry" />
        </mxCell>
        <mxCell id="j-U4Gg5Q3FjBqcs4gz2q-27" value="Stop" style="strokeWidth=2;html=1;shape=mxgraph.flowchart.terminator;whiteSpace=wrap;fillColor=#eeeeee;strokeColor=#36393d;fontColor=#000000;" vertex="1" parent="1">
          <mxGeometry x="500" y="970" width="100" height="60" as="geometry" />
        </mxCell>
      </root>
    </mxGraphModel>
  </diagram>
</mxfile>
